HIERARCHY
ROOT Hips
{
  OFFSET 13.6774 106.653 -34.4427
  CHANNELS 6 Xposition Yposition Zposition Zrotation Xrotation Yrotation
  JOINT ToSpine
  {
    OFFSET -2.69724 7.43032 -0.144315
    CHANNELS 3 Zrotation Xrotation Yrotation
    JOINT Spine
    {
      OFFSET -0.0310711 10.7595 1.96963
      CHANNELS 3 Zrotation Xrotation Yrotation
      JOINT Spine1
      {
        OFFSET 19.9056 3.91189 0.764692
        CHANNELS 3 Zrotation Xrotation Yrotation
        JOINT Neck
        {
          OFFSET 25.9749 7.03908 -0.130764
          CHANNELS 3 Zrotation Xrotation Yrotation
          JOINT Head
          {
            OFFSET 9.52751 0.295786 -0.907742
            CHANNELS 3 Zrotation Xrotation Yrotation
            End Site
            {
              OFFSET 16.4037 0.713936 2.7358
            }
          }
        }
        JOINT LeftShoulder
        {
          OFFSET 17.7449 4.33886 11.7777
          CHANNELS 3 Zrotation Xrotation Yrotation
          JOINT LeftArm
          {
            OFFSET 0.911315 1.27913 9.80584
            CHANNELS 3 Zrotation Xrotation Yrotation
            JOINT LeftForeArm
            {
              OFFSET 28.6126 1.18197 -3.53199
              CHANNELS 3 Zrotation Xrotation Yrotation
              JOINT LeftHand
              {
                OFFSET 27.5088 0.0218783 0.327423
                CHANNELS 3 Zrotation Xrotation Yrotation
                End Site
                {
                  OFFSET 18.6038 -0.000155887 0.382096
                }
              }
            }
          }
        }
        JOINT RightShoulder
        {
          OFFSET 17.1009 2.89543 -12.2328
          CHANNELS 3 Zrotation Xrotation Yrotation
          JOINT RightArm
          {
            OFFSET 1.4228 0.178766 -10.211
            CHANNELS 3 Zrotation Xrotation Yrotation
            JOINT RightForeArm
            {
              OFFSET 28.733 1.87905 2.64907
              CHANNELS 3 Zrotation Xrotation Yrotation
              JOINT RightHand
              {
                OFFSET 27.4588 0.290562 -0.101845
                CHANNELS 3 Zrotation Xrotation Yrotation
                End Site
                {
                  OFFSET 17.8396 -0.255518 -0.000602873
                }
              }
            }
          }
        }
      }
    }
  }
  JOINT LeftUpLeg
  {
    OFFSET -5.61296 -2.22332 -10.2353
    CHANNELS 3 Zrotation Xrotation Yrotation
    JOINT LeftLeg
    {
      OFFSET 2.56703 -44.7417 -7.93097
      CHANNELS 3 Zrotation Xrotation Yrotation
      JOINT LeftFoot
      {
        OFFSET 3.16933 -46.5642 -3.96578
        CHANNELS 3 Zrotation Xrotation Yrotation
        JOINT LeftToeBase
        {
          OFFSET 0.346054 -6.02161 12.8035
          CHANNELS 3 Zrotation Xrotation Yrotation
          End Site
          {
            OFFSET 0.134235 -1.35082 5.13018
          }
        }
      }
    }
  }
  JOINT RightUpLeg
  {
    OFFSET -5.7928 -1.72406 10.6446
    CHANNELS 3 Zrotation Xrotation Yrotation
    JOINT RightLeg
    {
      OFFSET -2.57161 -44.7178 -7.85259
      CHANNELS 3 Zrotation Xrotation Yrotation
      JOINT RightFoot
      {
        OFFSET -3.10148 -46.5936 -4.03391
        CHANNELS 3 Zrotation Xrotation Yrotation
        JOINT RightToeBase
        {
          OFFSET -0.0828122 -6.13587 12.8035
          CHANNELS 3 Zrotation Xrotation Yrotation
          End Site
          {
            OFFSET -0.131328 -1.35082 5.13018
          }
        }
      }
    }
  }
}
MOTION
Frames: 14
Frame Time: 0.03333333333333333
0.0000 93.1000 0.0000 50.1353 -32.3801 -31.1411 -70.9914 0.3402 87.9975 134.8857 67.2141 -48.8853 -2.9718 23.0240 3.3679 -135.2504 39.8001 156.1509 159.0837 79.8442 -114.3265 0.3419 -12.5241 -24.4998 -76.3467 45.9137 -90.7297 11.2825 8.3914 -54.4205 0.0818 0.4972 -0.5683 -2.7121 8.2341 41.3935 -117.9181 -6.6837 91.9763 12.2465 -5.0819 70.9333 -0.0810 -0.5025 -0.5125 -23.7554 13.3378 99.7742 -10.9462 68.0154 -7.6256 -4.0252 -12.9422 -1.7974 6.6869 -16.4461 14.8415 -6.9722 -10.0533 79.2387 2.7745 60.6952 -5.9749 -14.0591 -15.5915 1.7586 1.4819 -1.3701 -11.5113 
0.0000 93.1000 0.0000 49.1118 -32.1428 -32.1705 -70.9906 0.3389 87.9959 136.9675 66.1856 -50.8941 -3.0167 23.0449 3.2690 -136.4667 39.7983 157.2013 155.0684 79.3316 -110.2535 0.5748 -12.5180 -24.6350 -77.3612 46.4893 -87.6938 9.2641 9.1500 -48.1135 0.1913 0.5679 -0.5305 -2.4849 8.2240 40.8064 -116.0422 -7.6300 91.3395 13.0949 -5.9830 69.9861 -0.1433 -0.5155 -0.3673 -22.2260 13.7608 98.9106 -15.7277 74.3742 -5.0013 -4.5349 -11.4171 -1.8332 7.5976 -18.4348 15.6488 -4.4162 -10.0263 79.8574 3.7933 63.9844 -7.0779 -14.4668 -17.0800 1.6831 1.9151 -2.2337 -11.8315 
0.0000 93.1000 0.0000 48.0382 -32.1335 -33.1832 -70.9901 0.6227 87.9934 140.0718 65.1427 -52.8643 -3.2223 23.1427 2.9620 -136.7813 39.9380 159.2952 149.0205 78.9669 -104.2051 0.0167 -11.9888 -24.6474 -78.5830 47.0370 -84.6733 8.1809 9.3754 -43.4862 0.0927 0.9457 -0.5334 -2.7854 8.1611 40.5133 -114.8471 -8.7958 90.8424 13.2038 -6.1379 68.2657 -0.1973 -0.8941 -0.8391 -21.1392 13.8555 98.1388 -27.2828 79.5388 6.9788 -4.9597 -9.7313 -1.4612 7.6385 -18.8609 14.8426 -1.7597 -9.7576 80.7796 4.7780 67.1801 -8.0951 -13.9563 -17.5809 1.4839 1.9439 -2.6628 -13.9354 
0.0000 93.1000 0.0000 47.4272 -32.9264 -32.9577 -70.9922 0.5564 87.9908 142.0491 63.8637 -55.1286 -3.0631 22.9379 2.9721 -137.5743 39.9783 158.1967 158.2085 79.0746 -112.1291 -0.1886 -11.5696 -24.7603 -79.9047 47.7085 -81.8066 7.7393 9.7813 -39.1550 0.0280 0.9439 -0.2956 -2.9096 7.8933 40.1010 -113.2221 -8.9808 91.0977 13.3108 -6.0433 66.6463 -0.2440 -0.8495 -0.8461 -21.4048 14.0679 96.0624 -56.3655 82.8094 34.8310 -5.2990 -6.6383 -0.9083 7.9202 -18.9467 14.1970 1.1168 -8.9637 81.3431 7.0418 70.2886 -9.1823 -14.4309 -18.5085 1.1366 2.3879 -1.6118 -15.0515 
0.0000 93.1000 0.0000 47.0961 -33.0521 -33.9246 -70.9948 -0.2017 87.9869 144.0917 63.1176 -55.7849 -3.1468 23.0981 2.4901 -138.0654 40.2265 158.2731 165.0033 79.3869 -118.1254 -0.0086 -11.0750 -24.1454 -81.3510 48.2227 -77.5177 7.4453 10.0446 -36.7970 0.0119 0.1562 0.2621 -3.0002 8.0483 40.3757 -110.9601 -9.0713 92.0476 13.6788 -6.4739 64.9822 0.1665 -0.0863 -0.1987 -21.6089 14.1507 95.0785 -102.1304 84.0245 80.7398 -5.3806 -2.1232 -0.2187 7.9963 -18.8374 11.1632 3.3181 -7.8499 81.7534 7.6630 73.2013 -11.1043 -14.5614 -20.5382 0.5477 2.6065 -1.7830 -15.6568 
0.0000 93.1000 0.0000 46.0261 -33.9561 -34.1409 -70.9919 -0.0243 87.9872 146.1563 61.9737 -57.1084 -3.2279 23.1974 2.3196 -139.3630 40.3175 158.0835 164.7751 79.0782 -118.4310 0.2177 -10.5633 -23.3643 -83.1841 49.1246 -73.6995 7.2908 9.9717 -36.0768 -0.1442 0.1381 0.3849 -2.9790 8.8295 40.7009 -109.1838 -9.1426 91.8292 13.3781 -7.4685 64.1214 0.0642 0.0107 -0.0664 -23.0064 14.0696 93.9800 -129.7940 82.2953 107.1865 -6.2948 1.9979 0.3143 7.4430 -16.9638 10.5344 5.1107 -6.9320 82.2186 10.8452 76.2175 -14.0796 -14.4847 -21.5273 0.3773 1.5931 -2.2401 -16.9203 
0.0000 93.1000 0.0000 45.0713 -34.9768 -34.0817 -70.9916 0.1033 87.9885 147.9748 61.2504 -58.3646 -3.0586 23.5462 2.6233 -140.2592 40.0627 160.2565 160.7735 78.8581 -114.3030 0.4337 -9.6899 -23.1711 -84.6797 49.2494 -69.7699 7.0440 10.1759 -34.6075 -0.2140 0.2025 0.5860 -2.9025 8.9562 41.2020 -107.9490 -7.8960 91.7433 13.3235 -7.9352 61.9459 -0.0242 -0.0236 -0.0250 -23.9528 14.1919 92.8613 -140.8740 80.3245 116.3690 -6.5181 4.1447 0.6013 7.5176 -17.0179 11.1735 7.3031 -5.3733 83.2996 14.7968 79.1381 -19.0596 -13.6971 -21.9209 0.1512 1.2647 -1.0349 -17.7821 
0.0000 93.1000 0.0000 45.0334 -35.2597 -34.0575 -70.9909 -0.0906 87.9898 149.1765 60.7159 -59.2551 -3.4905 23.9855 2.8504 -140.3332 40.3382 160.4202 160.8970 78.8255 -113.4345 0.7712 -9.4237 -23.1567 -85.1049 49.9589 -66.6682 6.1408 10.2127 -34.1370 -0.0121 0.0070 0.6009 -2.8306 9.1296 41.9317 -105.8939 -7.2250 91.9818 13.3387 -7.9798 59.7399 -0.1401 0.0861 0.1952 -26.0193 13.8956 92.9340 -145.0235 80.0320 120.2010 -5.2501 1.3894 0.1723 8.7419 -18.8132 10.8139 9.9308 -4.1985 82.7909 23.8216 83.1170 -28.9917 -13.5693 -22.8714 0.0283 2.2204 -1.4019 -19.8115 
0.0000 93.1000 0.0000 45.0257 -36.2109 -34.0942 -70.9902 0.1535 87.9888 151.0831 59.9592 -60.9985 -4.2258 24.1713 3.2913 -140.3098 40.2553 160.0782 161.0098 78.9089 -113.0541 0.7621 -8.8788 -21.2036 -86.0285 51.1964 -62.7532 5.7026 9.7880 -33.0232 -0.0018 0.2027 0.3973 -2.9073 9.0120 43.0401 -104.1538 -6.2766 91.9833 11.8322 -7.9916 59.0628 -0.3553 -0.1614 0.0845 -28.4236 13.8660 92.1630 -146.1602 79.2647 121.8351 -3.2555 -3.7634 -0.6101 11.7130 -23.6904 12.1067 12.1250 -2.8140 83.1220 52.1582 86.4610 -57.3459 -14.0986 -24.3011 0.0977 3.1704 -1.8570 -21.4775 
0.0000 93.1000 0.0000 45.1226 -36.9503 -33.1373 -70.9868 0.4123 87.9919 153.0675 59.1244 -62.5320 -4.1026 24.0991 3.1721 -140.4315 39.7192 160.1808 158.9191 78.8864 -111.2377 0.8408 -8.1472 -19.7644 -85.1198 52.9977 -61.7893 6.1170 10.3696 -31.1785 -0.0304 0.3018 0.2061 -2.9809 8.7942 43.1889 -103.0414 -5.0743 92.0454 10.8755 -7.8337 59.0406 -0.4091 -0.1519 0.0371 -30.7483 12.7600 90.8663 -148.9311 78.2712 125.2273 -3.6037 -7.8531 -0.9723 16.7207 -31.1736 15.3480 14.4152 -1.3937 83.1822 118.7172 85.9294 -123.9951 -13.7986 -24.6739 0.0400 3.4247 -2.2261 -22.6422 
0.0000 93.1000 0.0000 45.9407 -38.7300 -32.0927 -70.9885 0.4039 87.9913 155.0421 58.7714 -64.0816 -4.6679 25.0409 2.7584 -139.2949 39.9015 160.1919 159.8422 79.1194 -112.0540 0.6076 -7.8186 -19.2201 -85.9856 53.0113 -58.7393 5.6812 10.9194 -30.1169 0.2736 0.2979 0.0484 -3.2111 8.7049 42.7979 -101.7869 -4.4240 90.9168 11.7356 -8.0274 57.8455 -0.2668 -0.1289 -0.1462 -33.0519 13.0374 90.1665 -152.2888 77.0196 129.0663 -3.7897 -11.3408 -1.2064 21.9752 -36.7699 20.7441 16.1679 -1.2599 83.0560 148.8354 83.2810 -156.0765 -14.5499 -25.3131 0.0597 3.0409 -3.9225 -23.0553 
0.0000 93.1000 0.0000 47.9028 -39.1180 -30.0102 -70.9860 0.6580 87.9914 157.0830 57.1859 -65.9867 -4.7912 25.3202 2.7806 -139.2318 40.0169 159.2961 159.4984 79.1436 -112.1409 0.9391 -7.6360 -18.4823 -86.3225 53.1495 -56.7557 5.9619 11.4720 -29.3021 0.3081 0.4073 -0.2653 -3.0149 9.1801 42.9424 -100.0289 -3.8311 90.8372 10.9891 -8.0381 56.9557 -0.3638 -0.2884 -0.3671 -34.4774 14.0815 88.8097 -156.0273 74.3707 133.0771 -2.8485 -14.3431 -1.9472 25.4482 -39.1200 24.9594 17.0688 -1.8414 82.0596 158.9458 79.1107 -166.0661 -16.0431 -26.1145 0.3117 3.0686 -5.2128 -22.7832 
0.0000 93.1000 0.0000 49.0176 -40.1419 -28.9681 -70.9886 0.0119 87.9933 159.0533 56.7507 -67.2658 -5.1980 26.0522 2.9697 -137.3683 40.1072 157.1786 160.4892 79.8757 -111.6136 1.1910 -7.3980 -18.3693 -88.1166 53.1338 -52.7412 6.1315 13.2575 -28.1315 0.1354 -0.2710 -0.0233 -3.0710 9.0859 43.8807 -97.9601 -2.0880 91.1075 10.2804 -8.1594 55.7381 0.0178 0.3089 0.1500 -35.0367 14.2993 87.0795 -160.1471 71.1381 135.1059 -1.9442 -15.9313 -2.1763 27.8478 -39.1185 28.7462 18.3024 -2.7070 80.9526 161.9998 75.1482 -169.2006 -15.8136 -26.7657 -0.0053 2.6607 -5.0169 -21.9132 
0.0000 93.1000 0.0000 49.9036 -41.3248 -28.1185 -70.9941 -0.3879 87.9941 160.0794 55.8335 -69.1374 -5.5510 27.0657 3.1613 -136.3098 40.0015 155.9581 158.7700 79.9124 -109.5062 1.0188 -7.2385 -18.0758 -88.9959 52.0799 -50.6394 6.8890 13.7556 -28.1497 -0.0774 -0.5036 0.0965 -3.1243 9.0465 42.9505 -96.8817 -1.4634 90.9135 11.0169 -9.0103 53.8815 0.2108 0.5390 0.2087 -35.1264 14.9520 85.7408 -162.2873 67.2098 136.0788 -1.0110 -16.9975 -2.1524 30.0366 -40.7930 30.6873 20.3279 -2.9944 79.9958 164.9555 72.1440 -171.7979 -15.7955 -26.8922 -0.2170 3.0652 -5.7160 -23.5549 
